ISO-10303-21;
HEADER;
FILE_DESCRIPTION (( 'STEP AP203' ),
    '1' );
FILE_NAME ('Part21^Assem1n.STEP',
    '2026-06-20T12:36:51',
    ( '' ),
    ( '' ),
    'SwSTEP 2.0',
    'SolidWorks 2024',
    '' );
FILE_SCHEMA (( 'CONFIG_CONTROL_DESIGN' ));
ENDSEC;

DATA;
#1 = LINE ( 'NONE', #310, #272 ) ;
#2 = CARTESIAN_POINT ( 'NONE',  ( 597.4139359270399154, 726.4194708938396161, 2.649999999994386624 ) ) ;
#3 = AXIS2_PLACEMENT_3D ( 'NONE', #313, #101, #309 ) ;
#4 = CC_DESIGN_SECURITY_CLASSIFICATION ( #342, ( #391 ) ) ;
#5 = FACE_OUTER_BOUND ( 'NONE', #112, .T. ) ;
#6 = EDGE_CURVE ( 'NONE', #208, #256, #279, .T. ) ;
#7 = CARTESIAN_POINT ( 'NONE',  ( 597.4139359270399154, 726.4194708938396161, 5.045593917527013694 ) ) ;
#8 = CARTESIAN_POINT ( 'NONE',  ( 597.4139359270399154, 726.4194708938396161, -5.045593917527013694 ) ) ;
#9 = ORIENTED_EDGE ( 'NONE', *, *, #317, .F. ) ;
#10 = AXIS2_PLACEMENT_3D ( 'NONE', #165, #117, #362 ) ;
#11 = CALENDAR_DATE ( 2026, 20, 6 ) ;
#12 = APPROVAL_STATUS ( 'not_yet_approved' ) ;
#13 = ORIENTED_EDGE ( 'NONE', *, *, #263, .T. ) ;
#14 = LINE ( 'NONE', #350, #304 ) ;
#15 = VERTEX_POINT ( 'NONE', #360 ) ;
#16 = CIRCLE ( 'NONE', #66, 5.744862036962117280 ) ;
#17 = APPROVAL_STATUS ( 'not_yet_approved' ) ;
#18 = CIRCLE ( 'NONE', #395, 5.744862036962117280 ) ;
#19 = ORIENTED_EDGE ( 'NONE', *, *, #297, .F. ) ;
#20 = APPLICATION_PROTOCOL_DEFINITION ( 'international standard', 'config_control_design', 1994, #158 ) ;
#21 = EDGE_LOOP ( 'NONE', ( #233, #33 ) ) ;
#22 = EDGE_CURVE ( 'NONE', #139, #319, #361, .T. ) ;
#23 = CALENDAR_DATE ( 2026, 20, 6 ) ;
#24 = CARTESIAN_POINT ( 'NONE',  ( 597.4139359270399154, 716.4194708938396161, 0.000000000000000000 ) ) ;
#25 = CIRCLE ( 'NONE', #163, 2.649999999994386624 ) ;
#26 = LOCAL_TIME ( 18, 6, 51.00000000000000000, #127 ) ;
#27 = FACE_OUTER_BOUND ( 'NONE', #146, .T. ) ;
#28 = CARTESIAN_POINT ( 'NONE',  ( 597.4139359270399154, 726.4194708938396161, 0.000000000000000000 ) ) ;
#29 = ADVANCED_FACE ( 'NONE', ( #330 ), #123, .F. ) ;
#30 = CARTESIAN_POINT ( 'NONE',  ( 597.4139359270399154, 726.4194708938396161, -2.649999999994386624 ) ) ;
#31 = CC_DESIGN_DATE_AND_TIME_ASSIGNMENT ( #288, #354, ( #290 ) ) ;
#32 = APPROVAL_PERSON_ORGANIZATION ( #48, #365, #326 ) ;
#33 = ORIENTED_EDGE ( 'NONE', *, *, #338, .F. ) ;
#34 = CARTESIAN_POINT ( 'NONE',  ( 597.4139359270399154, 726.4194708938396161, 0.000000000000000000 ) ) ;
#35 = FACE_OUTER_BOUND ( 'NONE', #346, .T. ) ;
#36 = DIRECTION ( 'NONE',  ( -0.000000000000000000, -1.000000000000000000, -0.000000000000000000 ) ) ;
#37 = DIRECTION ( 'NONE',  ( 0.000000000000000000, 0.000000000000000000, -1.000000000000000000 ) ) ;
#38 = VERTEX_POINT ( 'NONE', #193 ) ;
#39 = CARTESIAN_POINT ( 'NONE',  ( 597.4139359270399154, 736.4194708938396161, 0.000000000000000000 ) ) ;
#40 = ORIENTED_EDGE ( 'NONE', *, *, #251, .T. ) ;
#41 = AXIS2_PLACEMENT_3D ( 'NONE', #162, #358, #60 ) ;
#42 = AXIS2_PLACEMENT_3D ( 'NONE', #39, #312, #225 ) ;
#43 = EDGE_LOOP ( 'NONE', ( #9, #84, #13, #383 ) ) ;
#44 = ADVANCED_FACE ( 'NONE', ( #356, #396 ), #242, .F. ) ;
#45 = DIRECTION ( 'NONE',  ( 0.000000000000000000, -1.000000000000000000, 0.000000000000000000 ) ) ;
#46 = MECHANICAL_CONTEXT ( 'NONE', #224, 'mechanical' ) ;
#47 = ORIENTED_EDGE ( 'NONE', *, *, #196, .F. ) ;
#48 = PERSON_AND_ORGANIZATION ( #374, #349 ) ;
#49 = AXIS2_PLACEMENT_3D ( 'NONE', #308, #131, #253 ) ;
#50 = ORIENTED_EDGE ( 'NONE', *, *, #372, .F. ) ;
#51 = DATE_AND_TIME ( #151, #305 ) ;
#52 = VERTEX_POINT ( 'NONE', #125 ) ;
#53 = ADVANCED_FACE ( 'NONE', ( #278 ), #343, .F. ) ;
#54 = PERSON_AND_ORGANIZATION ( #374, #349 ) ;
#55 = LINE ( 'NONE', #249, #206 ) ;
#56 = DIRECTION ( 'NONE',  ( 0.000000000000000000, 0.000000000000000000, -1.000000000000000000 ) ) ;
#57 = DIRECTION ( 'NONE',  ( 0.000000000000000000, -1.000000000000000000, -0.000000000000000000 ) ) ;
#58 = APPROVAL_DATE_TIME ( #159, #379 ) ;
#59 = EDGE_CURVE ( 'NONE', #296, #52, #104, .T. ) ;
#60 = DIRECTION ( 'NONE',  ( 0.000000000000000000, 0.000000000000000000, 1.000000000000000000 ) ) ;
#61 = CARTESIAN_POINT ( 'NONE',  ( 597.4139359270399154, 736.4194708938396161, 8.752187731205673060 ) ) ;
#62 = EDGE_CURVE ( 'NONE', #259, #38, #55, .T. ) ;
#63 = DIRECTION ( 'NONE',  ( -0.000000000000000000, -1.000000000000000000, -0.000000000000000000 ) ) ;
#64 = LINE ( 'NONE', #341, #95 ) ;
#65 = DIRECTION ( 'NONE',  ( -0.000000000000000000, -1.000000000000000000, -0.000000000000000000 ) ) ;
#66 = AXIS2_PLACEMENT_3D ( 'NONE', #202, #69, #169 ) ;
#67 = DESIGN_CONTEXT ( 'detailed design', #158, 'design' ) ;
#68 = AXIS2_PLACEMENT_3D ( 'NONE', #82, #109, #236 ) ;
#69 = DIRECTION ( 'NONE',  ( -0.000000000000000000, -1.000000000000000000, -0.000000000000000000 ) ) ;
#70 = ORIENTED_EDGE ( 'NONE', *, *, #187, .T. ) ;
#71 = DIRECTION ( 'NONE',  ( -0.000000000000000000, -1.000000000000000000, -0.000000000000000000 ) ) ;
#72 = APPROVAL ( #17, 'UNSPECIFIED' ) ;
#73 = UNCERTAINTY_MEASURE_WITH_UNIT (LENGTH_MEASURE( 1.000000000000000082E-05 ), #241, 'distance_accuracy_value', 'NONE');
#74 =( NAMED_UNIT ( * ) PLANE_ANGLE_UNIT ( ) SI_UNIT ( $, .RADIAN. ) );
#75 = ORIENTED_EDGE ( 'NONE', *, *, #181, .F. ) ;
#76 = PERSON_AND_ORGANIZATION_ROLE ( 'design_owner' ) ;
#77 = CC_DESIGN_APPROVAL ( #379, ( #342 ) ) ;
#78 = DIRECTION ( 'NONE',  ( 0.000000000000000000, 1.000000000000000000, 0.000000000000000000 ) ) ;
#79 = ORIENTED_EDGE ( 'NONE', *, *, #196, .T. ) ;
#80 = DIRECTION ( 'NONE',  ( 8.542704229054930849E-18, 0.9975640502598243087, -0.06975647374412519142 ) ) ;
#81 = VERTEX_POINT ( 'NONE', #160 ) ;
#82 = CARTESIAN_POINT ( 'NONE',  ( 0.000000000000000000, 0.000000000000000000, 0.000000000000000000 ) ) ;
#83 = VECTOR ( 'NONE', #106, 1000.000000000000000 ) ;
#84 = ORIENTED_EDGE ( 'NONE', *, *, #338, .T. ) ;
#85 = DIRECTION ( 'NONE',  ( 0.000000000000000000, 1.000000000000000000, 0.000000000000000000 ) ) ;
#86 = CARTESIAN_POINT ( 'NONE',  ( 596.9139359270400291, 726.4194708938396161, 0.000000000000000000 ) ) ;
#87 = PERSON_AND_ORGANIZATION ( #374, #349 ) ;
#88 = DIRECTION ( 'NONE',  ( -1.000000000000000000, 0.000000000000000000, 0.000000000000000000 ) ) ;
#89 = EDGE_CURVE ( 'NONE', #81, #208, #102, .T. ) ;
#90 = DIRECTION ( 'NONE',  ( 0.000000000000000000, 1.000000000000000000, 0.000000000000000000 ) ) ;
#91 = EDGE_LOOP ( 'NONE', ( #75, #179 ) ) ;
#92 = APPROVAL_ROLE ( '' ) ;
#93 = FACE_BOUND ( 'NONE', #397, .T. ) ;
#94 = CARTESIAN_POINT ( 'NONE',  ( 597.4139359270399154, 726.4194708938396161, -5.045593917527013694 ) ) ;
#95 = VECTOR ( 'NONE', #96, 1000.000000000000000 ) ;
#96 = DIRECTION ( 'NONE',  ( -0.000000000000000000, -1.000000000000000000, -0.000000000000000000 ) ) ;
#97 = PRODUCT_DEFINITION_SHAPE ( 'NONE', 'NONE',  #290 ) ;
#98 = CYLINDRICAL_SURFACE ( 'NONE', #132, 2.649999999994386624 ) ;
#99 = ORIENTED_EDGE ( 'NONE', *, *, #297, .T. ) ;
#100 = EDGE_CURVE ( 'NONE', #38, #296, #25, .T. ) ;
#101 = DIRECTION ( 'NONE',  ( 0.000000000000000000, -1.000000000000000000, 0.000000000000000000 ) ) ;
#102 = CIRCLE ( 'NONE', #323, 7.353651492335466777 ) ;
#103 = AXIS2_PLACEMENT_3D ( 'NONE', #368, #45, #268 ) ;
#104 = CIRCLE ( 'NONE', #367, 2.649999999994386624 ) ;
#105 = DIRECTION ( 'NONE',  ( 0.000000000000000000, 1.000000000000000000, 0.000000000000000000 ) ) ;
#106 = DIRECTION ( 'NONE',  ( 0.000000000000000000, 0.000000000000000000, -1.000000000000000000 ) ) ;
#107 = ORIENTED_EDGE ( 'NONE', *, *, #22, .T. ) ;
#108 = ORIENTED_EDGE ( 'NONE', *, *, #301, .F. ) ;
#109 = DIRECTION ( 'NONE',  ( 0.000000000000000000, 0.000000000000000000, 1.000000000000000000 ) ) ;
#110 = ORIENTED_EDGE ( 'NONE', *, *, #89, .T. ) ;
#111 = DIRECTION ( 'NONE',  ( 0.000000000000000000, 0.000000000000000000, 1.000000000000000000 ) ) ;
#112 = EDGE_LOOP ( 'NONE', ( #50, #149, #153, #284 ) ) ;
#113 = ADVANCED_FACE ( 'NONE', ( #247, #364 ), #273, .F. ) ;
#114 = PERSON_AND_ORGANIZATION ( #374, #349 ) ;
#115 = VERTEX_POINT ( 'NONE', #119 ) ;
#116 = CONICAL_SURFACE ( 'NONE', #41, 5.045593917527013694, 0.06981317007977307088 ) ;
#117 = DIRECTION ( 'NONE',  ( 0.000000000000000000, -1.000000000000000000, 0.000000000000000000 ) ) ;
#118 = CALENDAR_DATE ( 2026, 20, 6 ) ;
#119 = CARTESIAN_POINT ( 'NONE',  ( 597.4139359270399154, 736.4194708938396161, -5.744862036962117280 ) ) ;
#120 = ADVANCED_FACE ( 'NONE', ( #243 ), #116, .F. ) ;
#121 = ADVANCED_BREP_SHAPE_REPRESENTATION ( 'Part21^Assem1n', ( #371, #68 ), #223 ) ;
#122 = PERSON_AND_ORGANIZATION_ROLE ( 'classification_officer' ) ;
#123 = PLANE ( 'NONE',  #140 ) ;
#124 = CC_DESIGN_PERSON_AND_ORGANIZATION_ASSIGNMENT ( #87, #122, ( #342 ) ) ;
#125 = CARTESIAN_POINT ( 'NONE',  ( 597.4139359270399154, 716.4194708938396161, 2.649999999994386624 ) ) ;
#126 = CONICAL_SURFACE ( 'NONE', #234, 8.752187731205673060, 0.06981317007977307088 ) ;
#127 = COORDINATED_UNIVERSAL_TIME_OFFSET ( 5, 30, .AHEAD. ) ;
#128 = CARTESIAN_POINT ( 'NONE',  ( 597.4139359270399154, 716.4194708938396161, 0.000000000000000000 ) ) ;
#129 = CC_DESIGN_PERSON_AND_ORGANIZATION_ASSIGNMENT ( #114, #209, ( #290 ) ) ;
#130 = LINE ( 'NONE', #94, #246 ) ;
#131 = DIRECTION ( 'NONE',  ( -0.000000000000000000, -1.000000000000000000, -0.000000000000000000 ) ) ;
#132 = AXIS2_PLACEMENT_3D ( 'NONE', #136, #373, #226 ) ;
#133 = DIRECTION ( 'NONE',  ( 0.000000000000000000, 0.000000000000000000, 1.000000000000000000 ) ) ;
#134 = ORIENTED_EDGE ( 'NONE', *, *, #6, .F. ) ;
#135 = EDGE_CURVE ( 'NONE', #208, #81, #271, .T. ) ;
#136 = CARTESIAN_POINT ( 'NONE',  ( 597.4139359270399154, 726.4194708938396161, 0.000000000000000000 ) ) ;
#137 = CC_DESIGN_PERSON_AND_ORGANIZATION_ASSIGNMENT ( #54, #359, ( #391 ) ) ;
#138 = CARTESIAN_POINT ( 'NONE',  ( 597.4139359270399154, 736.4194708938396161, 0.000000000000000000 ) ) ;
#139 = VERTEX_POINT ( 'NONE', #30 ) ;
#140 = AXIS2_PLACEMENT_3D ( 'NONE', #244, #88, #216 ) ;
#141 = CARTESIAN_POINT ( 'NONE',  ( 597.4139359270399154, 736.4194708938396161, 5.744862036962117280 ) ) ;
#142 = ORIENTED_EDGE ( 'NONE', *, *, #315, .T. ) ;
#143 = APPROVAL_DATE_TIME ( #51, #365 ) ;
#144 = ORIENTED_EDGE ( 'NONE', *, *, #205, .T. ) ;
#145 = DIRECTION ( 'NONE',  ( 0.000000000000000000, 0.000000000000000000, -1.000000000000000000 ) ) ;
#146 = EDGE_LOOP ( 'NONE', ( #108, #370, #351, #177 ) ) ;
#147 = AXIS2_PLACEMENT_3D ( 'NONE', #28, #63, #250 ) ;
#148 = CARTESIAN_POINT ( 'NONE',  ( 597.4139359270399154, 726.4194708938396161, 0.000000000000000000 ) ) ;
#149 = ORIENTED_EDGE ( 'NONE', *, *, #135, .F. ) ;
#150 = ADVANCED_FACE ( 'NONE', ( #93, #276 ), #191, .F. ) ;
#151 = CALENDAR_DATE ( 2026, 20, 6 ) ;
#152 = ORIENTED_EDGE ( 'NONE', *, *, #235, .T. ) ;
#153 = ORIENTED_EDGE ( 'NONE', *, *, #6, .T. ) ;
#154 = AXIS2_PLACEMENT_3D ( 'NONE', #306, #85, #392 ) ;
#155 = VECTOR ( 'NONE', #65, 1000.000000000000000 ) ;
#156 = DIRECTION ( 'NONE',  ( 0.000000000000000000, -1.000000000000000000, 0.000000000000000000 ) ) ;
#157 = CYLINDRICAL_SURFACE ( 'NONE', #147, 2.649999999994386624 ) ;
#158 = APPLICATION_CONTEXT ( 'configuration controlled 3d designs of mechanical parts and assemblies' ) ;
#159 = DATE_AND_TIME ( #118, #254 ) ;
#160 = CARTESIAN_POINT ( 'NONE',  ( 597.4139359270399154, 716.4194708938396161, -7.353651492335466777 ) ) ;
#161 = AXIS2_PLACEMENT_3D ( 'NONE', #86, #300, #221 ) ;
#162 = CARTESIAN_POINT ( 'NONE',  ( 597.4139359270399154, 726.4194708938396161, 0.000000000000000000 ) ) ;
#163 = AXIS2_PLACEMENT_3D ( 'NONE', #24, #156, #394 ) ;
#164 = ORIENTED_EDGE ( 'NONE', *, *, #301, .T. ) ;
#165 = CARTESIAN_POINT ( 'NONE',  ( 597.4139359270399154, 726.4194708938396161, 0.000000000000000000 ) ) ;
#166 = CARTESIAN_POINT ( 'NONE',  ( 597.4139359270399154, 736.4194708938396161, 0.000000000000000000 ) ) ;
#167 = CARTESIAN_POINT ( 'NONE',  ( 595.5825577549611580, 726.4194708938396161, 1.915346963556106230 ) ) ;
#168 = CARTESIAN_POINT ( 'NONE',  ( 597.4139359270399154, 716.4194708938396161, 7.353651492335466777 ) ) ;
#169 = DIRECTION ( 'NONE',  ( 0.000000000000000000, 0.000000000000000000, -1.000000000000000000 ) ) ;
#170 = ADVANCED_FACE ( 'NONE', ( #27 ), #157, .F. ) ;
#171 = FACE_OUTER_BOUND ( 'NONE', #386, .T. ) ;
#172 = EDGE_LOOP ( 'NONE', ( #70, #219, #382, #212 ) ) ;
#173 = CIRCLE ( 'NONE', #49, 5.045593917527013694 ) ;
#174 = CC_DESIGN_DATE_AND_TIME_ASSIGNMENT ( #248, #333, ( #342 ) ) ;
#175 = LOCAL_TIME ( 18, 6, 51.00000000000000000, #207 ) ;
#176 = COORDINATED_UNIVERSAL_TIME_OFFSET ( 5, 30, .AHEAD. ) ;
#177 = ORIENTED_EDGE ( 'NONE', *, *, #100, .T. ) ;
#178 = DIRECTION ( 'NONE',  ( 0.000000000000000000, -1.000000000000000000, 0.000000000000000000 ) ) ;
#179 = ORIENTED_EDGE ( 'NONE', *, *, #235, .F. ) ;
#180 =( NAMED_UNIT ( * ) SI_UNIT ( $, .STERADIAN. ) SOLID_ANGLE_UNIT ( ) );
#181 = EDGE_CURVE ( 'NONE', #256, #15, #375, .T. ) ;
#182 = ORIENTED_EDGE ( 'NONE', *, *, #372, .T. ) ;
#183 = COORDINATED_UNIVERSAL_TIME_OFFSET ( 5, 30, .AHEAD. ) ;
#184 = APPROVAL_PERSON_ORGANIZATION ( #363, #379, #92 ) ;
#185 = AXIS2_PLACEMENT_3D ( 'NONE', #192, #190, #303 ) ;
#186 = ORIENTED_EDGE ( 'NONE', *, *, #357, .T. ) ;
#187 = EDGE_CURVE ( 'NONE', #264, #314, #389, .T. ) ;
#188 = DIRECTION ( 'NONE',  ( -0.000000000000000000, -1.000000000000000000, -0.000000000000000000 ) ) ;
#189 = VECTOR ( 'NONE', #282, 1000.000000000000000 ) ;
#190 = DIRECTION ( 'NONE',  ( -0.000000000000000000, -1.000000000000000000, -0.000000000000000000 ) ) ;
#191 = PLANE ( 'NONE',  #161 ) ;
#192 = CARTESIAN_POINT ( 'NONE',  ( 597.4139359270399154, 716.4194708938396161, 0.000000000000000000 ) ) ;
#193 = CARTESIAN_POINT ( 'NONE',  ( 595.5825577549611580, 716.4194708938396161, -1.915346963556106230 ) ) ;
#194 = CONICAL_SURFACE ( 'NONE', #287, 8.752187731205673060, 0.06981317007977307088 ) ;
#195 = LOCAL_TIME ( 18, 6, 51.00000000000000000, #176 ) ;
#196 = EDGE_CURVE ( 'NONE', #319, #52, #64, .T. ) ;
#197 = DIRECTION ( 'NONE',  ( 0.000000000000000000, 0.000000000000000000, -1.000000000000000000 ) ) ;
#198 = ADVANCED_FACE ( 'NONE', ( #35 ), #337, .F. ) ;
#199 = CARTESIAN_POINT ( 'NONE',  ( 597.4139359270399154, 726.4194708938396161, 5.045593917527013694 ) ) ;
#200 = LINE ( 'NONE', #199, #189 ) ;
#201 = CIRCLE ( 'NONE', #3, 2.649999999994386624 ) ;
#202 = CARTESIAN_POINT ( 'NONE',  ( 597.4139359270399154, 736.4194708938396161, 0.000000000000000000 ) ) ;
#203 = DIRECTION ( 'NONE',  ( 0.000000000000000000, 0.000000000000000000, -1.000000000000000000 ) ) ;
#204 = ORIENTED_EDGE ( 'NONE', *, *, #307, .F. ) ;
#205 = EDGE_CURVE ( 'NONE', #115, #348, #16, .T. ) ;
#206 = VECTOR ( 'NONE', #188, 1000.000000000000000 ) ;
#207 = COORDINATED_UNIVERSAL_TIME_OFFSET ( 5, 30, .AHEAD. ) ;
#208 = VERTEX_POINT ( 'NONE', #168 ) ;
#209 = PERSON_AND_ORGANIZATION_ROLE ( 'creator' ) ;
#210 = VERTEX_POINT ( 'NONE', #167 ) ;
#211 = CC_DESIGN_APPROVAL ( #72, ( #290 ) ) ;
#212 = ORIENTED_EDGE ( 'NONE', *, *, #263, .F. ) ;
#213 = APPROVAL_STATUS ( 'not_yet_approved' ) ;
#214 = CARTESIAN_POINT ( 'NONE',  ( 597.4139359270399154, 726.4194708938396161, 0.000000000000000000 ) ) ;
#215 = SECURITY_CLASSIFICATION_LEVEL ( 'unclassified' ) ;
#216 = DIRECTION ( 'NONE',  ( 0.000000000000000000, 0.000000000000000000, 1.000000000000000000 ) ) ;
#217 = DIRECTION ( 'NONE',  ( -0.000000000000000000, -1.000000000000000000, -0.000000000000000000 ) ) ;
#218 = PERSON_AND_ORGANIZATION_ROLE ( 'creator' ) ;
#219 = ORIENTED_EDGE ( 'NONE', *, *, #317, .T. ) ;
#220 = COORDINATED_UNIVERSAL_TIME_OFFSET ( 5, 30, .AHEAD. ) ;
#221 = DIRECTION ( 'NONE',  ( 0.000000000000000000, 0.000000000000000000, -1.000000000000000000 ) ) ;
#222 = DIRECTION ( 'NONE',  ( 8.542704229054930849E-18, 0.9975640502598243087, -0.06975647374412519142 ) ) ;
#223 =( GEOMETRIC_REPRESENTATION_CONTEXT ( 3 ) GLOBAL_UNCERTAINTY_ASSIGNED_CONTEXT ( ( #73 ) ) GLOBAL_UNIT_ASSIGNED_CONTEXT ( ( #241, #74, #180 ) ) REPRESENTATION_CONTEXT ( 'NONE', 'WORKASPACE' ) );
#224 = APPLICATION_CONTEXT ( 'configuration controlled 3d designs of mechanical parts and assemblies' ) ;
#225 = DIRECTION ( 'NONE',  ( 0.000000000000000000, 0.000000000000000000, -1.000000000000000000 ) ) ;
#226 = DIRECTION ( 'NONE',  ( 0.000000000000000000, 0.000000000000000000, -1.000000000000000000 ) ) ;
#227 = DIRECTION ( 'NONE',  ( 0.000000000000000000, 0.000000000000000000, -1.000000000000000000 ) ) ;
#228 = CARTESIAN_POINT ( 'NONE',  ( 597.4139359270399154, 726.4194708938396161, -2.649999999994386624 ) ) ;
#229 = FACE_OUTER_BOUND ( 'NONE', #355, .T. ) ;
#230 = ADVANCED_FACE ( 'NONE', ( #5 ), #126, .T. ) ;
#231 = ORIENTED_EDGE ( 'NONE', *, *, #135, .T. ) ;
#232 = APPLICATION_PROTOCOL_DEFINITION ( 'international standard', 'config_control_design', 1994, #224 ) ;
#233 = ORIENTED_EDGE ( 'NONE', *, *, #187, .F. ) ;
#234 = AXIS2_PLACEMENT_3D ( 'NONE', #166, #105, #133 ) ;
#235 = EDGE_CURVE ( 'NONE', #15, #256, #265, .T. ) ;
#236 = DIRECTION ( 'NONE',  ( 1.000000000000000000, 0.000000000000000000, 0.000000000000000000 ) ) ;
#237 = ORIENTED_EDGE ( 'NONE', *, *, #307, .T. ) ;
#238 = PRODUCT_RELATED_PRODUCT_CATEGORY ( 'detail', '', ( #252 ) ) ;
#239 = DATE_AND_TIME ( #11, #195 ) ;
#240 = EDGE_LOOP ( 'NONE', ( #186, #269, #204, #40 ) ) ;
#241 =( LENGTH_UNIT ( ) NAMED_UNIT ( * ) SI_UNIT ( .MILLI., .METRE. ) );
#242 = PLANE ( 'NONE',  #154 ) ;
#243 = FACE_OUTER_BOUND ( 'NONE', #43, .T. ) ;
#244 = CARTESIAN_POINT ( 'NONE',  ( 595.5825577549611580, 726.4194708938396161, 1.915346963556106230 ) ) ;
#245 = AXIS2_PLACEMENT_3D ( 'NONE', #34, #258, #281 ) ;
#246 = VECTOR ( 'NONE', #222, 1000.000000000000000 ) ;
#247 = FACE_OUTER_BOUND ( 'NONE', #91, .T. ) ;
#248 = DATE_AND_TIME ( #23, #26 ) ;
#249 = CARTESIAN_POINT ( 'NONE',  ( 595.5825577549611580, 726.4194708938396161, -1.915346963556106230 ) ) ;
#250 = DIRECTION ( 'NONE',  ( 0.000000000000000000, 0.000000000000000000, -1.000000000000000000 ) ) ;
#251 = EDGE_CURVE ( 'NONE', #210, #393, #336, .T. ) ;
#252 = PRODUCT ( 'Part21^Assem1n', 'Part21^Assem1n', '', ( #46 ) ) ;
#253 = DIRECTION ( 'NONE',  ( 0.000000000000000000, 0.000000000000000000, -1.000000000000000000 ) ) ;
#254 = LOCAL_TIME ( 18, 6, 51.00000000000000000, #220 ) ;
#255 = CARTESIAN_POINT ( 'NONE',  ( 595.5825577549611580, 726.4194708938396161, 1.915346963556106230 ) ) ;
#256 = VERTEX_POINT ( 'NONE', #280 ) ;
#257 = DIRECTION ( 'NONE',  ( -0.000000000000000000, -1.000000000000000000, -0.000000000000000000 ) ) ;
#258 = DIRECTION ( 'NONE',  ( -0.000000000000000000, -1.000000000000000000, -0.000000000000000000 ) ) ;
#259 = VERTEX_POINT ( 'NONE', #369 ) ;
#260 = AXIS2_PLACEMENT_3D ( 'NONE', #148, #178, #145 ) ;
#261 = LINE ( 'NONE', #378, #83 ) ;
#262 = PERSON_AND_ORGANIZATION ( #374, #349 ) ;
#263 = EDGE_CURVE ( 'NONE', #264, #348, #200, .T. ) ;
#264 = VERTEX_POINT ( 'NONE', #7 ) ;
#265 = CIRCLE ( 'NONE', #42, 8.752187731205673060 ) ;
#266 = APPROVAL_ROLE ( '' ) ;
#267 = ORIENTED_EDGE ( 'NONE', *, *, #22, .F. ) ;
#268 = DIRECTION ( 'NONE',  ( 0.000000000000000000, 0.000000000000000000, -1.000000000000000000 ) ) ;
#269 = ORIENTED_EDGE ( 'NONE', *, *, #62, .F. ) ;
#270 = ORIENTED_EDGE ( 'NONE', *, *, #59, .F. ) ;
#271 = CIRCLE ( 'NONE', #185, 7.353651492335466777 ) ;
#272 = VECTOR ( 'NONE', #227, 1000.000000000000000 ) ;
#273 = PLANE ( 'NONE',  #377 ) ;
#274 = DIRECTION ( 'NONE',  ( 0.000000000000000000, -1.000000000000000000, 0.000000000000000000 ) ) ;
#275 = ADVANCED_FACE ( 'NONE', ( #171 ), #98, .F. ) ;
#276 = FACE_OUTER_BOUND ( 'NONE', #21, .T. ) ;
#277 = CIRCLE ( 'NONE', #103, 2.649999999994386624 ) ;
#278 = FACE_OUTER_BOUND ( 'NONE', #172, .T. ) ;
#279 = LINE ( 'NONE', #61, #316 ) ;
#280 = CARTESIAN_POINT ( 'NONE',  ( 597.4139359270399154, 736.4194708938396161, 8.752187731205673060 ) ) ;
#281 = DIRECTION ( 'NONE',  ( 0.000000000000000000, 0.000000000000000000, -1.000000000000000000 ) ) ;
#282 = DIRECTION ( 'NONE',  ( 0.000000000000000000, 0.9975640502598243087, 0.06975647374412519142 ) ) ;
#283 = CARTESIAN_POINT ( 'NONE',  ( 597.4139359270399154, 716.4194708938396161, -2.649999999994386624 ) ) ;
#284 = ORIENTED_EDGE ( 'NONE', *, *, #181, .T. ) ;
#285 = CARTESIAN_POINT ( 'NONE',  ( 595.5825577549611580, 716.4194708938396161, 1.915346963556106230 ) ) ;
#286 = ORIENTED_EDGE ( 'NONE', *, *, #251, .F. ) ;
#287 = AXIS2_PLACEMENT_3D ( 'NONE', #318, #78, #111 ) ;
#288 = DATE_AND_TIME ( #321, #175 ) ;
#289 = ORIENTED_EDGE ( 'NONE', *, *, #345, .T. ) ;
#290 = PRODUCT_DEFINITION ( 'UNKNOWN', '', #391, #67 ) ;
#291 = ORIENTED_EDGE ( 'NONE', *, *, #340, .T. ) ;
#292 = PERSON_AND_ORGANIZATION ( #374, #349 ) ;
#293 = ORIENTED_EDGE ( 'NONE', *, *, #59, .T. ) ;
#294 = AXIS2_PLACEMENT_3D ( 'NONE', #366, #36, #197 ) ;
#295 = CC_DESIGN_APPROVAL ( #365, ( #391 ) ) ;
#296 = VERTEX_POINT ( 'NONE', #283 ) ;
#297 = EDGE_CURVE ( 'NONE', #319, #210, #201, .T. ) ;
#298 = DIRECTION ( 'NONE',  ( 0.000000000000000000, 0.000000000000000000, -1.000000000000000000 ) ) ;
#299 = CLOSED_SHELL ( 'NONE', ( #198, #275, #387, #53, #44, #150, #120, #113, #230, #170, #29 ) ) ;
#300 = DIRECTION ( 'NONE',  ( 0.000000000000000000, -1.000000000000000000, -0.000000000000000000 ) ) ;
#301 = EDGE_CURVE ( 'NONE', #139, #296, #339, .T. ) ;
#302 = CARTESIAN_POINT ( 'NONE',  ( 591.6690738900778115, 736.4194708938396161, 0.000000000000000000 ) ) ;
#303 = DIRECTION ( 'NONE',  ( 0.000000000000000000, 0.000000000000000000, -1.000000000000000000 ) ) ;
#304 = VECTOR ( 'NONE', #80, 1000.000000000000000 ) ;
#305 = LOCAL_TIME ( 18, 6, 51.00000000000000000, #183 ) ;
#306 = CARTESIAN_POINT ( 'NONE',  ( 590.0602844347044993, 716.4194708938396161, 0.000000000000000000 ) ) ;
#307 = EDGE_CURVE ( 'NONE', #210, #259, #1, .T. ) ;
#308 = CARTESIAN_POINT ( 'NONE',  ( 597.4139359270399154, 726.4194708938396161, 0.000000000000000000 ) ) ;
#309 = DIRECTION ( 'NONE',  ( 0.000000000000000000, 0.000000000000000000, -1.000000000000000000 ) ) ;
#310 = CARTESIAN_POINT ( 'NONE',  ( 595.5825577549611580, 726.4194708938396161, 1.915346963556106230 ) ) ;
#311 = VECTOR ( 'NONE', #344, 1000.000000000000000 ) ;
#312 = DIRECTION ( 'NONE',  ( -0.000000000000000000, -1.000000000000000000, -0.000000000000000000 ) ) ;
#313 = CARTESIAN_POINT ( 'NONE',  ( 597.4139359270399154, 726.4194708938396161, 0.000000000000000000 ) ) ;
#314 = VERTEX_POINT ( 'NONE', #8 ) ;
#315 = EDGE_CURVE ( 'NONE', #348, #115, #18, .T. ) ;
#316 = VECTOR ( 'NONE', #334, 1000.000000000000000 ) ;
#317 = EDGE_CURVE ( 'NONE', #314, #115, #130, .T. ) ;
#318 = CARTESIAN_POINT ( 'NONE',  ( 597.4139359270399154, 736.4194708938396161, 0.000000000000000000 ) ) ;
#319 = VERTEX_POINT ( 'NONE', #2 ) ;
#320 = ORIENTED_EDGE ( 'NONE', *, *, #89, .F. ) ;
#321 = CALENDAR_DATE ( 2026, 20, 6 ) ;
#322 = ORIENTED_EDGE ( 'NONE', *, *, #357, .F. ) ;
#323 = AXIS2_PLACEMENT_3D ( 'NONE', #331, #217, #298 ) ;
#324 = APPROVAL_PERSON_ORGANIZATION ( #385, #72, #266 ) ;
#325 = AXIS2_PLACEMENT_3D ( 'NONE', #214, #90, #327 ) ;
#326 = APPROVAL_ROLE ( '' ) ;
#327 = DIRECTION ( 'NONE',  ( 0.000000000000000000, 0.000000000000000000, 1.000000000000000000 ) ) ;
#328 = DIRECTION ( 'NONE',  ( 0.000000000000000000, 0.000000000000000000, -1.000000000000000000 ) ) ;
#329 = SHAPE_DEFINITION_REPRESENTATION ( #97, #121 ) ;
#330 = FACE_OUTER_BOUND ( 'NONE', #240, .T. ) ;
#331 = CARTESIAN_POINT ( 'NONE',  ( 597.4139359270399154, 716.4194708938396161, 0.000000000000000000 ) ) ;
#332 = EDGE_LOOP ( 'NONE', ( #231, #110 ) ) ;
#333 = DATE_TIME_ROLE ( 'classification_date' ) ;
#334 = DIRECTION ( 'NONE',  ( 0.000000000000000000, 0.9975640502598243087, 0.06975647374412519142 ) ) ;
#335 = AXIS2_PLACEMENT_3D ( 'NONE', #376, #257, #37 ) ;
#336 = LINE ( 'NONE', #255, #311 ) ;
#337 = CYLINDRICAL_SURFACE ( 'NONE', #245, 2.649999999994386624 ) ;
#338 = EDGE_CURVE ( 'NONE', #314, #264, #173, .T. ) ;
#339 = LINE ( 'NONE', #228, #155 ) ;
#340 = EDGE_CURVE ( 'NONE', #52, #393, #277, .T. ) ;
#341 = CARTESIAN_POINT ( 'NONE',  ( 597.4139359270399154, 726.4194708938396161, 2.649999999994386624 ) ) ;
#342 = SECURITY_CLASSIFICATION ( '', '', #215 ) ;
#343 = CONICAL_SURFACE ( 'NONE', #325, 5.045593917527013694, 0.06981317007977307088 ) ;
#344 = DIRECTION ( 'NONE',  ( -0.000000000000000000, -1.000000000000000000, -0.000000000000000000 ) ) ;
#345 = EDGE_CURVE ( 'NONE', #259, #139, #390, .T. ) ;
#346 = EDGE_LOOP ( 'NONE', ( #19, #79, #291, #286 ) ) ;
#347 = CC_DESIGN_PERSON_AND_ORGANIZATION_ASSIGNMENT ( #262, #218, ( #391 ) ) ;
#348 = VERTEX_POINT ( 'NONE', #141 ) ;
#349 = ORGANIZATION ( 'UNSPECIFIED', 'UNSPECIFIED', '' ) ;
#350 = CARTESIAN_POINT ( 'NONE',  ( 597.4139359270399154, 736.4194708938396161, -8.752187731205673060 ) ) ;
#351 = ORIENTED_EDGE ( 'NONE', *, *, #62, .T. ) ;
#352 = APPROVAL_DATE_TIME ( #239, #72 ) ;
#353 = EDGE_LOOP ( 'NONE', ( #322, #380, #270, #381 ) ) ;
#354 = DATE_TIME_ROLE ( 'creation_date' ) ;
#355 = EDGE_LOOP ( 'NONE', ( #320, #182, #152, #134 ) ) ;
#356 = FACE_BOUND ( 'NONE', #353, .T. ) ;
#357 = EDGE_CURVE ( 'NONE', #393, #38, #261, .T. ) ;
#358 = DIRECTION ( 'NONE',  ( 0.000000000000000000, 1.000000000000000000, 0.000000000000000000 ) ) ;
#359 = PERSON_AND_ORGANIZATION_ROLE ( 'design_supplier' ) ;
#360 = CARTESIAN_POINT ( 'NONE',  ( 597.4139359270399154, 736.4194708938396161, -8.752187731205673060 ) ) ;
#361 = CIRCLE ( 'NONE', #10, 2.649999999994386624 ) ;
#362 = DIRECTION ( 'NONE',  ( 0.000000000000000000, 0.000000000000000000, -1.000000000000000000 ) ) ;
#363 = PERSON_AND_ORGANIZATION ( #374, #349 ) ;
#364 = FACE_BOUND ( 'NONE', #388, .T. ) ;
#365 = APPROVAL ( #12, 'UNSPECIFIED' ) ;
#366 = CARTESIAN_POINT ( 'NONE',  ( 597.4139359270399154, 726.4194708938396161, 0.000000000000000000 ) ) ;
#367 = AXIS2_PLACEMENT_3D ( 'NONE', #128, #274, #328 ) ;
#368 = CARTESIAN_POINT ( 'NONE',  ( 597.4139359270399154, 716.4194708938396161, 0.000000000000000000 ) ) ;
#369 = CARTESIAN_POINT ( 'NONE',  ( 595.5825577549611580, 726.4194708938396161, -1.915346963556106230 ) ) ;
#370 = ORIENTED_EDGE ( 'NONE', *, *, #345, .F. ) ;
#371 = MANIFOLD_SOLID_BREP ( 'Cut-Extrude1', #299 ) ;
#372 = EDGE_CURVE ( 'NONE', #81, #15, #14, .T. ) ;
#373 = DIRECTION ( 'NONE',  ( -0.000000000000000000, -1.000000000000000000, -0.000000000000000000 ) ) ;
#374 = PERSON ( 'UNSPECIFIED', 'UNSPECIFIED', 'UNSPECIFIED', ('UNSPECIFIED'), ('UNSPECIFIED'), ('UNSPECIFIED') ) ;
#375 = CIRCLE ( 'NONE', #335, 8.752187731205673060 ) ;
#376 = CARTESIAN_POINT ( 'NONE',  ( 597.4139359270399154, 736.4194708938396161, 0.000000000000000000 ) ) ;
#377 = AXIS2_PLACEMENT_3D ( 'NONE', #302, #57, #56 ) ;
#378 = CARTESIAN_POINT ( 'NONE',  ( 595.5825577549611580, 716.4194708938396161, 1.915346963556106230 ) ) ;
#379 = APPROVAL ( #213, 'UNSPECIFIED' ) ;
#380 = ORIENTED_EDGE ( 'NONE', *, *, #340, .F. ) ;
#381 = ORIENTED_EDGE ( 'NONE', *, *, #100, .F. ) ;
#382 = ORIENTED_EDGE ( 'NONE', *, *, #315, .F. ) ;
#383 = ORIENTED_EDGE ( 'NONE', *, *, #205, .F. ) ;
#384 = CC_DESIGN_PERSON_AND_ORGANIZATION_ASSIGNMENT ( #292, #76, ( #252 ) ) ;
#385 = PERSON_AND_ORGANIZATION ( #374, #349 ) ;
#386 = EDGE_LOOP ( 'NONE', ( #47, #267, #164, #293 ) ) ;
#387 = ADVANCED_FACE ( 'NONE', ( #229 ), #194, .T. ) ;
#388 = EDGE_LOOP ( 'NONE', ( #142, #144 ) ) ;
#389 = CIRCLE ( 'NONE', #294, 5.045593917527013694 ) ;
#390 = CIRCLE ( 'NONE', #260, 2.649999999994386624 ) ;
#391 = PRODUCT_DEFINITION_FORMATION_WITH_SPECIFIED_SOURCE ( 'ANY', '', #252, .NOT_KNOWN. ) ;
#392 = DIRECTION ( 'NONE',  ( 0.000000000000000000, -0.000000000000000000, 1.000000000000000000 ) ) ;
#393 = VERTEX_POINT ( 'NONE', #285 ) ;
#394 = DIRECTION ( 'NONE',  ( 0.000000000000000000, 0.000000000000000000, -1.000000000000000000 ) ) ;
#395 = AXIS2_PLACEMENT_3D ( 'NONE', #138, #71, #203 ) ;
#396 = FACE_OUTER_BOUND ( 'NONE', #332, .T. ) ;
#397 = EDGE_LOOP ( 'NONE', ( #237, #289, #107, #99 ) ) ;
ENDSEC;
END-ISO-10303-21;
